<?xml version="1.0" encoding="UTF-8"?>
<svg version="1.1" xmlns="http://www.w3.org/2000/svg" width="512" height="512">
<path d="M0 0 C0.66 0 1.32 0 2 0 C2.14695313 1.10472656 2.29390625 2.20945312 2.4453125 3.34765625 C6.32505408 30.90585165 14.68676614 57.52246878 28 82 C28.35030273 82.6590332 28.70060547 83.31806641 29.06152344 83.99707031 C45.88086441 115.59567046 70.74090045 142.3254624 102 160 C102.61746094 160.35513672 103.23492187 160.71027344 103.87109375 161.07617188 C121.87107076 171.35932706 141.04389364 177.66219648 161 183 C161 183.66 161 184.32 161 185 C160.37770508 185.17015625 159.75541016 185.3403125 159.11425781 185.515625 C103.02565607 200.99402078 59.29601143 231.23266413 29.89331055 281.90771484 C15.01984576 308.245762 5.463882 337.9568254 2 368 C1.34 368 0.68 368 0 368 C-0.14695313 366.89527344 -0.29390625 365.79054688 -0.4453125 364.65234375 C-4.32505408 337.09414835 -12.68676614 310.47753122 -26 286 C-26.35030273 285.3409668 -26.70060547 284.68193359 -27.06152344 284.00292969 C-53.11715251 235.05205782 -95.82320798 204.27870166 -148.11474609 187.86376953 C-151.72045529 186.78431454 -155.33498385 185.85472294 -159 185 C-159 184.34 -159 183.68 -159 183 C-158.37770508 182.82984375 -157.75541016 182.6596875 -157.11425781 182.484375 C-101.02049216 167.00455417 -57.30473394 136.76621495 -27.89355469 86.09350586 C-13.18948766 60.04711102 -3.04495365 29.84054581 0 0 Z " fill="#000000" transform="translate(191,96)"/>
<path d="M0 0 C0.66 0 1.32 0 2 0 C2.20753906 1.16273438 2.41507812 2.32546875 2.62890625 3.5234375 C6.8997649 26.20893849 15.48947472 45.72073061 31 63 C31.67289062 63.76699219 32.34578125 64.53398437 33.0390625 65.32421875 C47.81102547 81.17503294 68.443842 89.64870981 89 95 C89 95.66 89 96.32 89 97 C87.741875 97.3403125 86.48375 97.680625 85.1875 98.03125 C56.25658888 106.11212912 32.2703364 121.45551474 16.87011719 147.94335938 C9.16092054 161.85149152 4.72596898 176.37554364 2 192 C1.34 192 0.68 192 0 192 C-0.29390625 190.29070312 -0.29390625 190.29070312 -0.59375 188.546875 C-5.24412471 163.26147521 -15.69404435 142.07617378 -34 124 C-34.68707031 123.31421875 -35.37414062 122.6284375 -36.08203125 121.921875 C-41.72184779 116.6501307 -48.32992243 112.82376076 -55 109 C-55.92425781 108.46246094 -56.84851563 107.92492187 -57.80078125 107.37109375 C-66.9904404 102.39282012 -76.9781585 99.77459291 -87 97 C-87 96.34 -87 95.68 -87 95 C-85.741875 94.6596875 -84.48375 94.319375 -83.1875 93.96875 C-54.25658888 85.88787088 -30.2703364 70.54448526 -14.87011719 44.05664062 C-7.16092054 30.14850848 -2.72596898 15.62445636 0 0 Z " fill="#000000" transform="translate(391,288)"/>
<path d="M0 0 C0.66 0 1.32 0 2 0 C2.20753906 1.16273437 2.41507812 2.32546875 2.62890625 3.5234375 C6.8997649 26.20893849 15.48947472 45.72073061 31 63 C31.67289062 63.76699219 32.34578125 64.53398438 33.0390625 65.32421875 C47.81102547 81.17503294 68.443842 89.64870981 89 95 C89 95.66 89 96.32 89 97 C87.741875 97.3403125 86.48375 97.680625 85.1875 98.03125 C56.25658888 106.11212912 32.2703364 121.45551474 16.87011719 147.94335938 C9.16092054 161.85149152 4.72596898 176.37554364 2 192 C1.34 192 0.68 192 0 192 C-0.29390625 190.29070312 -0.29390625 190.29070312 -0.59375 188.546875 C-5.24412471 163.26147521 -15.69404435 142.07617378 -34 124 C-34.68707031 123.31421875 -35.37414062 122.6284375 -36.08203125 121.921875 C-41.72184779 116.6501307 -48.32992243 112.82376076 -55 109 C-55.92425781 108.46246094 -56.84851563 107.92492187 -57.80078125 107.37109375 C-66.9904404 102.39282012 -76.9781585 99.77459291 -87 97 C-87 96.34 -87 95.68 -87 95 C-85.741875 94.6596875 -84.48375 94.319375 -83.1875 93.96875 C-54.25658888 85.88787088 -30.2703364 70.54448526 -14.87011719 44.05664062 C-7.16092054 30.14850848 -2.72596898 15.62445636 0 0 Z " fill="#000000" transform="translate(335,32)"/>
</svg>
